<svg width="125" height="78" viewBox="0 0 125 78" fill="none" xmlns="http://www.w3.org/2000/svg">
<path d="M43.9593 44.5251C55.2767 25.3831 48.3389 0 48.3389 0C48.3389 0 47.6157 16.9266 19.1549 34.5826C-9.30597 52.2522 2.37302 78 2.37302 78C9.61881 68.071 9.27058 68.2466 60.6206 68.2466L84.1527 44.5116H43.9593V44.5251ZM30.4454 52.6169C21.8067 59.2362 11.4805 62.1812 2.96232 73.7177C2.96232 73.7177 3.44448 60.7087 22.1684 46.9837C33.1375 38.9325 45.513 23.4378 48.4327 11.1718C48.4461 11.1583 52.1427 35.974 30.4454 52.6169ZM91.0771 44.5251L67.5584 68.2466C72.4469 68.2466 77.7775 68.2466 78.1257 68.2466L101.658 44.5251H91.0771ZM103.493 46.5379L98.2023 51.8739L114.435 68.2466C114.797 68.2466 120.127 68.2466 125.002 68.2466L103.493 46.5379ZM93.2736 67.9494H100.452V60.7087H93.2736V67.9494Z" fill="#6F6F6F"/>
</svg>
