<svg width="101" height="64" viewBox="0 0 101 64" fill="none" xmlns="http://www.w3.org/2000/svg">
<path d="M99.89 43.4405C99.1756 43.8403 98.1316 44.4179 96.8127 45.0732C96.1423 45.3953 95.417 45.7397 94.6037 46.0951C94.2081 46.2728 93.7794 46.4394 93.3508 46.6171C92.9222 46.7948 92.4606 46.9615 91.999 47.1281C90.1307 47.8056 88.0096 48.3943 85.7236 48.8275C83.7454 49.1607 81.6353 49.405 79.4262 49.4606V17.9493L55.1159 0L43.9718 8.23047L32.8278 0L8.51741 17.9493V46.4727C8.19869 46.706 7.89097 46.9503 7.58324 47.1725C7.12165 47.5612 6.66007 47.9278 6.24244 48.3054C4.56094 49.8382 3.29706 51.3377 2.39587 52.6484C1.48368 53.9479 0.879216 55.0586 0.52753 55.8028C0.351687 56.1805 0.230794 56.4693 0.142873 56.6692C0.0439608 56.8691 0 56.9691 0 56.9691C0 56.9691 0.0879216 56.9024 0.274755 56.7914C0.450598 56.6692 0.725354 56.4915 1.05506 56.2582C1.39576 56.025 1.82437 55.7584 2.30794 55.4474C2.54973 55.2919 2.83547 55.1364 3.11023 54.9698C3.39597 54.8032 3.68172 54.6143 4.01143 54.4477C5.28629 53.7258 6.85789 52.9483 8.69325 52.2485C9.14385 52.0819 9.61643 51.9153 10.111 51.7376C10.6055 51.5932 11.1001 51.4155 11.6276 51.2822C12.6607 50.9934 13.7487 50.7046 14.9027 50.5047C17.1887 50.0604 19.6725 49.7827 22.3101 49.7383C24.9478 49.6827 27.7283 49.816 30.6187 50.1826C33.4981 50.538 36.4765 51.0711 39.4878 51.7709C42.4991 52.4818 45.5654 53.337 48.6097 54.3145C49.368 54.5699 50.1373 54.8032 50.8956 55.0586L52.0386 55.4474L52.709 55.6806L53.3135 55.8806L54.5224 56.2693L55.1269 56.4693L55.8083 56.6692C56.7095 56.9247 57.6326 57.2023 58.5119 57.3912C62.0397 58.2575 65.6225 58.7796 69.1394 58.9017C72.6563 59.0461 76.0962 58.724 79.2724 58.0687C82.4485 57.4134 85.3609 56.336 87.8667 55.092C89.1086 54.4366 90.2845 53.8035 91.3286 53.0815C91.8561 52.7372 92.3507 52.3596 92.8343 52.0264C93.3069 51.6709 93.7684 51.3044 94.1861 50.949C95.0433 50.227 95.8016 49.5272 96.472 48.8386C97.1424 48.161 97.7249 47.5057 98.2195 46.8948C99.2196 45.6841 99.901 44.6623 100.341 43.9625C100.571 43.6182 100.725 43.3294 100.835 43.1517C100.945 42.9628 101 42.874 101 42.874C101 42.874 100.604 43.0295 99.89 43.4405ZM50.9286 21.126V42.7185C47.8953 41.7633 44.7961 40.9969 41.6749 40.4637C38.136 39.8639 34.5642 39.564 31.0803 39.6085C29.9373 39.6196 28.7943 39.6751 27.6733 39.764L48.1481 19.0711L50.9286 21.126ZM32.8278 7.76397L38.7075 12.1069L43.0816 15.328L16.5183 42.1742C15.9028 42.4075 15.2984 42.6518 14.7159 42.9073V21.126L32.8278 7.76397ZM70.1065 48.6831C67.282 48.1721 64.3916 47.428 61.4792 46.4838C60.7319 46.2617 60.0615 45.9951 59.3581 45.7619L58.8306 45.5842L58.2481 45.3509L57.1271 44.9288V17.9493L52.5881 14.5949L49.2361 12.1069L55.1159 7.76397L73.2168 21.1371V49.1496C72.1947 49.0274 71.1616 48.8719 70.1065 48.6831Z" fill="#6F6F6F"/>
<path d="M50.1483 60.8233C49.6977 60.5234 49.2141 60.2124 48.6976 59.9014C48.181 59.5904 47.6205 59.2905 47.038 58.9684C46.4556 58.6352 45.8401 58.3353 45.1917 58.0243C44.5433 57.7244 43.8839 57.3912 43.1695 57.1024C42.4661 56.8136 41.7408 56.5248 40.9934 56.236C40.2351 55.9695 39.4658 55.714 38.6745 55.4585C37.0809 54.9698 35.4104 54.5366 33.6849 54.2034C31.9595 53.8591 30.1901 53.6258 28.4096 53.4592C27.5194 53.3926 26.6182 53.3481 25.739 53.3148C25.2884 53.3037 24.8488 53.3037 24.4092 53.3037C23.9696 53.3037 23.519 53.2926 23.0794 53.3259C22.6398 53.3481 22.2002 53.3593 21.7606 53.3815C21.321 53.4037 20.8923 53.4481 20.4637 53.4814C19.6065 53.5481 18.7492 53.6591 17.925 53.7813C16.2655 54.0368 14.6719 54.37 13.1882 54.781C11.7045 55.1808 10.3198 55.6696 9.07787 56.1805C6.58309 57.2024 4.64881 58.3686 3.37395 59.2794C2.0881 60.2013 1.47264 60.8789 1.47264 60.8789C1.47264 60.8789 1.69245 60.8455 2.11008 60.8011C2.51671 60.7567 3.11018 60.69 3.86851 60.6012C4.62683 60.5345 5.52803 60.4457 6.55012 60.3568C7.5832 60.2902 8.72618 60.2013 9.96807 60.1458C11.21 60.0902 12.5508 60.0347 13.9575 60.0125C15.3643 59.9792 16.837 59.9792 18.3536 60.0014C19.1119 60.0236 19.8812 60.0236 20.6615 60.0569C21.4418 60.068 22.2331 60.1125 23.0244 60.1458C23.8157 60.168 24.618 60.2458 25.4203 60.2791C26.2226 60.3457 27.0249 60.4012 27.8382 60.4679C29.4427 60.6123 31.0583 60.7678 32.6519 60.9566C34.2454 61.1454 35.8061 61.3454 37.3337 61.5564C38.092 61.6786 38.8503 61.7786 39.5867 61.8674C40.323 61.9896 41.0484 62.1007 41.7518 62.2006C42.4661 62.2895 43.1475 62.4228 43.8179 62.5227C44.4883 62.6227 45.1367 62.7116 45.7632 62.8226C47.0271 63.0115 48.181 63.1892 49.2031 63.3558C50.2472 63.5002 51.1594 63.6335 51.9067 63.7334C53.4234 63.9445 54.3246 64 54.3246 64C54.3246 64 53.6651 63.378 52.4342 62.4228C51.8188 61.9563 51.0495 61.4231 50.1483 60.8233Z" fill="#6F6F6F"/>
</svg>
