<svg width="119" height="92" viewBox="0 0 119 92" fill="none" xmlns="http://www.w3.org/2000/svg">
<path fill-rule="evenodd" clip-rule="evenodd" d="M13.8095 48.2225L47.4414 13.336L79.4559 47.3355C75.592 47.4512 71.7676 47.7702 68.1275 48.1631L67.7654 48.2026L46.5463 26.04L22.964 51.4888C19.8239 50.7915 16.6117 49.7829 13.9004 48.2738L13.8095 48.2225Z" fill="#6F6F6F"/>
<path fill-rule="evenodd" clip-rule="evenodd" d="M65.3059 29.8453L74.2232 20.595L102.096 50.1962C98.237 48.8005 94.0545 47.9984 89.7556 47.6027L73.5183 30.6003L69.7977 34.6152L65.3059 29.8453Z" fill="#6F6F6F"/>
<path fill-rule="evenodd" clip-rule="evenodd" d="M27.1178 20.8709L47.2377 0L66.8904 20.8709H60.236L46.7593 6.79528L33.7154 20.8709H27.1178Z" fill="#6F6F6F"/>
<path fill-rule="evenodd" clip-rule="evenodd" d="M42.0912 38.7644H46.1108V42.8397H42.0912V38.7644ZM42.0912 44.6505H46.1108V48.7257H42.0912V44.6505ZM47.897 44.6505H51.9166V48.7257H47.897V44.6505ZM47.897 38.7644H51.9166V42.8397H47.897V38.7644Z" fill="#6F6F6F"/>
<path fill-rule="evenodd" clip-rule="evenodd" d="M113.543 77.547C113.56 79.6613 112.881 81.8491 111.443 83.6436C107.506 88.5582 101.962 88.5151 101.962 88.5151C107.462 88.2383 115.657 80.2766 110.524 76.2104C104.694 71.592 100.583 83.4371 99.2893 85.0905C98.3342 86.3119 97.1706 87.1531 95.9988 87.7315C93.1196 89.153 90.1917 88.9892 90.1917 88.9892C96.0297 91.7024 100.874 92.393 104.819 91.8059C114.94 90.3014 119.137 80.3882 118.997 74.6505C118.984 74.1351 118.945 73.6237 118.882 73.1192C118.709 71.7422 118.352 70.4106 117.84 69.1542C106.634 33.3584 48.2668 56.9988 27.429 54.1481C26.7406 54.0501 26.042 53.9407 25.337 53.8187L25.3267 53.8169L25.3178 53.8155C20.9173 53.0533 16.2908 51.8019 12.6069 49.7516C8.77215 47.6164 5.49462 44.1745 5.45748 39.5857C5.44047 37.4718 6.11898 35.2835 7.55612 33.4896C11.4938 28.5749 17.0374 28.6176 17.0374 28.6176C11.5377 28.8943 3.34317 36.8557 8.47586 40.9223C14.3059 45.5407 18.4172 33.6955 19.7107 32.0422C20.6653 30.8208 21.8295 29.9796 23.0012 29.4011C25.8804 27.9797 28.8084 28.143 28.8084 28.143C22.9699 25.4302 18.1258 24.7397 14.181 25.3263C4.05972 26.8313 -0.137554 36.7445 0.00342945 42.4822C0.0159613 42.9976 0.054452 43.5085 0.118454 44.0135C0.291215 45.39 0.647925 46.7221 1.15994 47.9785C12.3657 83.7738 70.7328 60.1339 91.5711 62.9842C92.2594 63.0822 92.9581 63.1915 93.663 63.3135L93.6728 63.3149L93.6822 63.3167C98.0827 64.079 102.709 65.3303 106.393 67.3806C110.228 69.5163 113.505 72.9586 113.543 77.547Z" fill="#6F6F6F"/>
</svg>
