<svg width="63" height="64" viewBox="0 0 63 64" fill="none" xmlns="http://www.w3.org/2000/svg">
<path d="M56.71 22.45C56.71 26.75 56.71 54.55 56.71 57.91H49.05C49.05 3.97 49.05 35.73 49.05 16.43L28.29 0L28.26 4.79C28.26 11.03 28.26 52.36 28.26 57.9H18.95C18.95 39.13 18.95 30.74 18.95 11.85L0 27.06V63.96H6.09C6.09 63.96 6.06 59.13 6.06 30L12.9 24.62C12.9 71.29 12.9 54.79 12.9 63.96H34.38C34.38 40.69 34.38 33.18 34.38 12.54L42.61 18.77C42.61 30.25 42.61 52.58 42.61 63.95H62.58V27.05L56.71 22.45Z" fill="#6F6F6F"/>
</svg>
